<svg enable-background="new 0 0 514.47 91.5" viewBox="0 0 514.47 91.5" xmlns="http://www.w3.org/2000/svg"><g fill="#fff"><path d="m456.41 40.9-2.21-4.96c5.2-2.84 9.3-4.02 15.05-4.02 10.32 0 15.29 5.67 15.29 16.23v25.53h-5.04l-.55-4.57c-3.94 3.47-9.61 5.44-14.18 5.44-7.88 0-12.84-4.81-12.84-11.9 0-7.8 4.96-12.69 15.13-12.69h11.66v-1.34c0-7.33-3.23-11.27-10.4-11.27-4.03.01-7.9 1.27-11.91 3.55zm22.3 13.95h-11.43c-6.3 0-9.46 2.6-9.46 7.09 0 4.57 3.39 7.17 8.35 7.17 4.73 0 8.98-2.05 12.53-5.04v-9.22zm-136.11 18.83-7.43-43.81-15.6 43.81h-4.49l-15.52-43.97-7.51 43.97h-6.22l9.79-55.16h6.07l15.68 45.86 15.6-45.86h6.07l9.79 55.16zm44.13-2.91c-4.18 2.29-8.51 3.7-14.42 3.7-12.21 0-20.09-8.67-20.09-21.28 0-11.9 7.8-21.27 18.67-21.27s17.34 8.43 17.34 18.99c0 1.5-.08 2.99-.16 4.49h-29.86c.95 8.35 6.3 13.79 14.58 13.79 4.73 0 9.14-1.58 11.9-2.99zm-4.49-20.49v-.31c0-7.25-4.25-12.77-11.27-12.77-7.09 0-11.66 5.59-12.69 13.08zm48.07-33.49v56.81h-5.04l-.55-4.25c-3.47 3.07-8.12 5.12-13.55 5.12-11.03 0-17.18-9.61-17.18-21.2 0-11.9 7.01-21.35 18.2-21.35 4.49 0 8.51 1.42 12.21 4.1v-19.23zm-17.88 52.32c4.57 0 9.06-2.21 11.98-4.81v-22.61c-2.92-2.68-7.33-4.49-11.19-4.49-8.27 0-13.24 6.78-13.24 16.07 0 8.75 4.33 15.84 12.45 15.84zm32.49-37.03v41.6h-5.91v-41.6zm-390.42 6.93c-.63 3.62-1.58 7.64-2.13 10.01l-5.99 24.66h-14.1l-15.92-55.16h12.92l7.49 27.58c.55 2.44 1.58 6.62 2.36 10.09l9.14-37.66h12.37l9.22 37.66c.87-3.47 1.89-7.64 2.44-10.09l7.33-27.58h12.92l-15.83 55.16h-14.1l-5.99-24.66c-.55-2.37-1.5-6.38-2.13-10.01zm112.64-6.93h10.24l.79 4.33c1.97-1.81 4.02-3.15 6.15-4.02s4.41-1.26 6.93-1.26c4.33 0 7.64 1.42 10.09 4.33 2.36 2.92 3.55 7.01 3.55 12.29v25.92h-11.74v-25.2c0-2.44-.55-4.18-1.58-5.36s-2.68-1.73-4.96-1.73c-2.6 0-5.2 1.02-7.72 3.07v29.23h-11.74v-41.6zm77.72 30.41 3.62 7.96c-4.02 2.52-9.22 4.18-16.23 4.18-12.37 0-21.12-9.14-21.12-21.83 0-12.13 8.12-21.67 20.09-21.67 11.5 0 18.67 8.12 18.67 20.41 0 1.58-.08 3.7-.16 4.89h-27.03c1.02 5.75 4.89 8.51 11.35 8.51 3.8-.01 7.42-.79 10.81-2.45zm-22.14-13.63h16.39v-.39c0-2.28-.79-4.33-2.13-5.91-1.5-1.58-3.31-2.36-5.59-2.36-2.29 0-4.18.79-5.75 2.36-1.5 1.49-2.45 3.7-2.92 6.3zm-62.27-16.83c-.52-.07-1.03-.12-1.52-.12-4.81 0-9.06 1.81-12.84 5.44l-.79-5.28h-10.24v41.6h11.74v-28.44c3.07-1.81 6.3-2.76 9.69-2.76 1.32 0 2.64.08 3.96.31zm121.15 10.76c.06.02.11.03.17.05l1.84-10.35c-.19-.07-.39-.13-.59-.18-1.02-.24-2.05-.39-2.99-.39-4.81 0-9.06 1.81-12.84 5.44l-.79-5.28h-10.24v41.6h11.74v-28.45c3.07-1.81 6.3-2.76 9.69-2.76 1.33 0 2.67.08 4.01.32zm160.26-26c-2.1 0-3.79 1.7-3.79 3.79s1.7 3.79 3.79 3.79c2.1 0 3.79-1.7 3.79-3.79s-1.69-3.79-3.79-3.79zm-331.49 14.34c-5.47 0-10.72 1.12-15.97 3.4l2.25 9.18c4.15-1.79 7.99-2.65 11.75-2.65 5.12 0 7.8 2.05 7.8 7.41v.39h-7.96c-11.58 0-16.86 4.65-16.86 13.08 0 7.56 5.44 12.76 13.63 12.76 5.36 0 8.83-1.89 12.53-4.96l.71 3.94h9.61v-25.92c0-10.64-6.3-16.63-17.49-16.63zm5.83 32.07c-1.1.95-4.81 2.68-7.49 2.68-3.47 0-5.59-1.97-5.59-4.81s2.05-4.73 5.91-4.73h7.17z"/><path d="m492.67 17.16h-1.17v-.37h2.73v.37h-1.17v3.15h-.4v-3.15z"/><path d="m497.71 20.31v-2.75l-1.1 2.13h-.34l-1.1-2.11v2.73h-.4v-3.52h.4l1.27 2.47 1.26-2.47h.4v3.52z"/></g></svg>